<svg width="14" height="15" viewBox="0 0 14 15" fill="none" xmlns="http://www.w3.org/2000/svg">
<g clip-path="url(#clip0_503_1024)">
<path d="M7 0.772461C3.13111 0.772461 0 3.90321 0 7.77246C0 11.6413 3.13075 14.7725 7 14.7725C10.8689 14.7725 14 11.6417 14 7.77246C14 3.90362 10.8693 0.772461 7 0.772461ZM7 13.7957C3.67877 13.7957 0.976746 11.0937 0.976746 7.77246C0.976746 4.45121 3.67877 1.74921 7 1.74921C10.3212 1.74921 13.0233 4.45121 13.0233 7.77246C13.0233 11.0937 10.3212 13.7957 7 13.7957Z" fill="#6D6D6D"/>
<path d="M7.0005 6.60742C6.58586 6.60742 6.29102 6.78253 6.29102 7.04052V10.5511C6.29102 10.7722 6.58586 10.9933 7.0005 10.9933C7.39672 10.9933 7.71918 10.7722 7.71918 10.5511V7.04046C7.71918 6.7825 7.39672 6.60742 7.0005 6.60742Z" fill="#6D6D6D"/>
<path d="M6.99968 4.44238C6.57582 4.44238 6.24414 4.74645 6.24414 5.09658C6.24414 5.44675 6.57585 5.76002 6.99968 5.76002C7.41432 5.76002 7.74605 5.44675 7.74605 5.09658C7.74605 4.74645 7.41429 4.44238 6.99968 4.44238Z" fill="#6D6D6D"/>
</g>
<defs>
<clipPath id="clip0_503_1024">
<rect width="14" height="14" fill="white" transform="translate(0 0.772461)"/>
</clipPath>
</defs>
</svg>
